<?xml version="1.0" encoding="UTF-8"?>
<!DOCTYPE svg PUBLIC "-//W3C//DTD SVG 1.1//EN" "http://www.w3.org/Graphics/SVG/1.1/DTD/svg11.dtd">
<!-- Creator: CorelDRAW X7 -->
<svg xmlns="http://www.w3.org/2000/svg" xml:space="preserve" width="210mm" height="297mm" version="1.1" style="shape-rendering:geometricPrecision; text-rendering:geometricPrecision; image-rendering:optimizeQuality; fill-rule:evenodd; clip-rule:evenodd"
viewBox="0 0 21000 29700"
 xmlns:xlink="http://www.w3.org/1999/xlink">
 <defs>
  <style type="text/css">
   <![CDATA[
    .fil0 {fill:#FEFEFE}
   ]]>
  </style>
 </defs>
 <g id="Слой_x0020_1">
  <metadata id="CorelCorpID_0Corel-Layer"/>
  <g id="_744994180016">
   <path class="fil0" d="M-297 6584c-106,629 -148,1047 93,1657 55,137 176,391 259,508 370,525 698,847 1315,1174 936,499 2144,661 3181,499 443,-69 931,-196 1355,-326 375,-115 954,-287 1326,-368 1209,-262 2147,-179 3158,607l564 443c97,70 203,136 300,208 389,282 1310,732 1748,899 1488,563 3052,817 4609,481 1779,-383 2978,-1640 3292,-3512 143,-851 -13,-2472 -314,-3239 -144,-368 -152,-418 -332,-794 -297,-622 -915,-1339 -1474,-1720 -329,-226 -707,-450 -1073,-621 -1590,-742 -3366,-1009 -5119,-948 -882,31 -1381,70 -2243,149 -1271,115 -3029,385 -4197,723 -90,26 -154,37 -242,65 -90,28 -152,42 -240,65 -160,41 -321,98 -486,149 -934,282 -2333,842 -3180,1321l-420 240c-79,42 -120,88 -194,131 -89,52 -127,75 -209,133 -187,134 -390,292 -557,452 -66,62 -111,109 -177,178 -331,353 -659,945 -743,1446z"/>
   <path class="fil0" d="M18009 14110c-52,318 5,703 116,982 116,291 259,506 460,736 175,201 448,430 702,565 160,84 273,145 456,215 706,270 1482,252 2071,-54 813,-424 1125,-1325 811,-2136 -304,-787 -956,-1352 -1772,-1608 -678,-213 -1326,-168 -1812,44 -525,229 -935,682 -1032,1256z"/>
   <path class="fil0" d="M22649 12441c426,72 787,4 1069,-136 749,-372 855,-1233 267,-1830 -520,-527 -1416,-696 -2102,-341 -1075,557 -645,2071 766,2307z"/>
   <path class="fil0" d="M22902 9051c1212,204 2251,-842 1402,-1811 -319,-363 -960,-528 -1445,-453 -203,32 -306,67 -474,141 -129,58 -274,160 -372,262 -685,718 -119,1693 889,1861z"/>
   <path class="fil0" d="M21213 4646c-54,324 94,625 262,793 820,824 2326,362 2470,-493l19 -115c54,-320 -155,-662 -350,-815 -893,-705 -2251,-263 -2401,630z"/>
   <path class="fil0" d="M19809 2083c-28,163 -39,285 20,441 46,123 84,175 160,274 463,609 1839,481 2206,-354 443,-1010 -908,-1636 -1803,-1106 -233,138 -522,379 -583,745z"/>
  </g>
 </g>
</svg>
