<?xml version="1.0" encoding="UTF-8"?>
<!DOCTYPE svg PUBLIC "-//W3C//DTD SVG 1.1//EN" "http://www.w3.org/Graphics/SVG/1.1/DTD/svg11.dtd">
<!-- Creator: CorelDRAW X7 -->
<svg xmlns="http://www.w3.org/2000/svg" xml:space="preserve" width="210mm" height="297mm" version="1.1" style="shape-rendering:geometricPrecision; text-rendering:geometricPrecision; image-rendering:optimizeQuality; fill-rule:evenodd; clip-rule:evenodd"
viewBox="0 0 21000 29700"
 xmlns:xlink="http://www.w3.org/1999/xlink">
 <defs>
  <style type="text/css">
   <![CDATA[
    .fil0 {fill:#FEFEFE}
   ]]>
  </style>
 </defs>
 <g id="Слой_x0020_1">
  <metadata id="CorelCorpID_0Corel-Layer"/>
  <g id="_744994180016">
   <path class="fil0" d="M-720 23530c-106,-630 -148,-1048 93,-1657 54,-137 176,-391 258,-508 371,-526 699,-847 1316,-1175 936,-498 2144,-660 3181,-498 443,68 930,196 1355,325 374,115 954,287 1326,368 1209,262 2147,179 3158,-606l564 -443c97,-70 202,-137 300,-208 388,-282 1309,-733 1748,-899 1487,-563 3052,-817 4609,-482 1779,383 2978,1641 3291,3512 143,852 -12,2473 -313,3240 -144,368 -153,417 -333,794 -296,621 -914,1338 -1473,1720 -330,225 -708,450 -1073,621 -1591,741 -3367,1009 -5120,948 -882,-31 -1381,-71 -2243,-149 -1270,-115 -3029,-385 -4196,-724 -90,-25 -154,-37 -242,-64 -90,-28 -152,-43 -241,-65 -159,-42 -320,-98 -485,-149 -935,-282 -2333,-842 -3180,-1321l-420 -240c-79,-43 -121,-88 -195,-131 -88,-52 -126,-75 -208,-134 -188,-133 -390,-292 -557,-451 -66,-63 -112,-109 -177,-179 -331,-353 -660,-944 -743,-1445z"/>
   <path class="fil0" d="M17586 16004c-53,-319 4,-703 116,-982 115,-291 258,-506 460,-737 175,-201 448,-430 702,-564 160,-85 273,-146 456,-216 706,-270 1482,-251 2070,55 814,423 1126,1324 812,2135 -305,787 -957,1352 -1772,1609 -679,213 -1327,167 -1812,-44 -525,-229 -935,-683 -1032,-1256z"/>
   <path class="fil0" d="M22226 17672c426,-72 786,-3 1068,137 750,371 855,1233 268,1830 -520,527 -1416,696 -2103,340 -1074,-556 -644,-2071 767,-2307z"/>
   <path class="fil0" d="M22478 21062c1213,-203 2251,842 1402,1811 -318,364 -959,529 -1445,453 -203,-32 -305,-66 -474,-141 -128,-58 -274,-160 -371,-261 -685,-719 -119,-1693 888,-1862z"/>
   <path class="fil0" d="M20790 25468c-54,-325 94,-625 262,-794 820,-823 2326,-362 2470,494l18 115c54,319 -154,661 -350,815 -892,705 -2250,263 -2400,-630z"/>
   <path class="fil0" d="M19385 28031c-27,-163 -39,-285 20,-442 46,-122 84,-174 160,-274 464,-608 1840,-480 2207,355 443,1010 -908,1636 -1803,1106 -233,-138 -522,-380 -584,-745z"/>
  </g>
 </g>
</svg>
