<?xml version="1.0" encoding="UTF-8"?>
<!DOCTYPE svg PUBLIC "-//W3C//DTD SVG 1.1//EN" "http://www.w3.org/Graphics/SVG/1.1/DTD/svg11.dtd">
<!-- Creator: CorelDRAW X7 -->
<svg xmlns="http://www.w3.org/2000/svg" xml:space="preserve" width="297mm" height="210mm" version="1.1" style="shape-rendering:geometricPrecision; text-rendering:geometricPrecision; image-rendering:optimizeQuality; fill-rule:evenodd; clip-rule:evenodd"
viewBox="0 0 29700 21000"
 xmlns:xlink="http://www.w3.org/1999/xlink">
 <defs>
  <style type="text/css">
   <![CDATA[
    .fil0 {fill:#FEFEFE}
   ]]>
  </style>
 </defs>
 <g id="Слой_x0020_1">
  <metadata id="CorelCorpID_0Corel-Layer"/>
  <g id="_744994180016">
   <path class="fil0" d="M2995 7314c-106,629 -148,1047 93,1657 54,137 176,391 258,508 371,525 699,847 1316,1174 936,499 2144,661 3181,499 443,-69 930,-196 1355,-326 374,-115 954,-287 1326,-368 1209,-262 2147,-179 3158,607l564 443c97,70 202,136 300,208 388,282 1309,732 1748,899 1487,563 3052,817 4609,481 1779,-383 2978,-1640 3291,-3512 143,-851 -12,-2472 -313,-3239 -144,-368 -153,-418 -333,-794 -296,-622 -914,-1339 -1473,-1720 -330,-226 -708,-450 -1073,-621 -1591,-742 -3367,-1009 -5120,-948 -882,31 -1381,70 -2243,149 -1270,115 -3029,385 -4196,723 -90,26 -154,37 -242,65 -90,28 -152,42 -241,65 -159,41 -320,98 -485,149 -935,282 -2333,842 -3180,1321l-420 240c-79,42 -121,88 -195,131 -88,52 -126,75 -208,133 -188,134 -390,292 -557,452 -66,62 -112,109 -177,178 -331,353 -660,945 -743,1446z"/>
   <path class="fil0" d="M21301 14840c-53,318 4,703 116,982 115,291 258,506 460,736 175,201 448,430 702,565 160,84 273,145 456,215 706,270 1482,252 2070,-54 814,-424 1126,-1325 812,-2136 -305,-787 -957,-1352 -1772,-1608 -679,-213 -1327,-168 -1812,44 -525,229 -935,682 -1032,1256z"/>
   <path class="fil0" d="M25941 13171c426,72 786,4 1068,-136 750,-372 855,-1233 268,-1830 -520,-527 -1416,-696 -2103,-341 -1074,556 -644,2071 767,2307z"/>
   <path class="fil0" d="M26193 9781c1213,204 2251,-842 1402,-1811 -318,-363 -959,-528 -1445,-453 -203,32 -305,67 -474,141 -128,58 -274,160 -371,262 -685,718 -119,1693 888,1861z"/>
   <path class="fil0" d="M24505 5376c-54,324 94,625 262,793 820,824 2326,362 2470,-493l18 -115c54,-320 -154,-662 -350,-815 -892,-705 -2250,-263 -2400,630z"/>
   <path class="fil0" d="M23100 2813c-27,163 -39,285 20,441 46,123 84,175 160,274 464,609 1840,481 2207,-354 443,-1010 -908,-1636 -1803,-1106 -233,138 -522,379 -584,745z"/>
  </g>
 </g>
</svg>
