<?xml version="1.0" encoding="UTF-8"?>
<!DOCTYPE svg PUBLIC "-//W3C//DTD SVG 1.1//EN" "http://www.w3.org/Graphics/SVG/1.1/DTD/svg11.dtd">
<!-- Creator: CorelDRAW X7 -->
<svg xmlns="http://www.w3.org/2000/svg" xml:space="preserve" width="210mm" height="297mm" version="1.1" style="shape-rendering:geometricPrecision; text-rendering:geometricPrecision; image-rendering:optimizeQuality; fill-rule:evenodd; clip-rule:evenodd"
viewBox="0 0 21000 29700"
 xmlns:xlink="http://www.w3.org/1999/xlink">
 <defs>
  <style type="text/css">
   <![CDATA[
    .fil0 {fill:#FEFEFE}
   ]]>
  </style>
 </defs>
 <g id="Слой_x0020_1">
  <metadata id="CorelCorpID_0Corel-Layer"/>
  <g id="_744994180016">
   <path class="fil0" d="M-502 28223c637,567 1080,912 1941,1072 194,36 568,79 759,69 858,-46 1455,-189 2264,-654 1229,-705 2271,-1957 2825,-3246 238,-550 440,-1192 595,-1765 136,-505 353,-1283 526,-1762 563,-1554 1324,-2557 2931,-3143l902 -323c149,-60 299,-132 449,-192 595,-239 1760,-961 2260,-1339 1694,-1283 3094,-2873 3821,-4874 831,-2285 260,-4536 -1635,-6221 -862,-767 -2807,-1743 -3889,-1948 -519,-98 -581,-124 -1135,-188 -914,-106 -2165,84 -2994,445 -489,213 -1012,481 -1465,773 -1970,1273 -3535,3093 -4712,5120 -592,1020 -902,1613 -1426,2644 -773,1520 -1717,3702 -2164,5264 -35,120 -67,200 -99,319 -32,122 -60,203 -97,319 -67,210 -117,432 -177,655 -345,1258 -705,3239 -765,4538l-27 646c-8,119 14,199 10,313 -4,137 -5,196 3,331 18,307 53,649 115,951 24,119 44,204 76,327 164,626 600,1418 1108,1869z"/>
   <path class="fil0" d="M21027 12855c323,286 799,495 1194,567 411,76 756,67 1160,3 352,-55 805,-201 1138,-393 209,-121 359,-206 568,-363 807,-607 1338,-1499 1410,-2382 99,-1222 -699,-2215 -1840,-2436 -1107,-215 -2210,121 -3080,862 -723,616 -1132,1382 -1238,2082 -114,757 108,1543 688,2060z"/>
   <path class="fil0" d="M22437 6418c384,-431 563,-887 605,-1306 112,-1112 -788,-1844 -1881,-1603 -966,214 -1794,1107 -1880,2137 -134,1611 1886,2201 3156,772z"/>
   <path class="fil0" d="M18780 3723c1092,-1228 647,-3146 -1053,-2874 -638,102 -1280,710 -1540,1313 -108,253 -142,393 -177,637 -26,187 -14,424 32,606 326,1286 1831,1338 2738,318z"/>
   <path class="fil0" d="M12594 2502c329,292 774,338 1084,268 1515,-343 2063,-2375 1197,-3146l-117 -103c-323,-288 -858,-295 -1171,-183 -1432,509 -1897,2360 -993,3164z"/>
   <path class="fil0" d="M8695 2270c165,147 295,247 514,291 171,35 257,29 424,14 1018,-92 1851,-1740 1167,-2749 -828,-1219 -2497,-136 -2533,1254 -10,362 58,861 428,1190z"/>
  </g>
 </g>
</svg>
